<svg viewBox="0 0 31 31" fill="none" xmlns="http://www.w3.org/2000/svg">
<path d="M24.3125 1.9375H21.4062V0.96875C21.4062 0.711821 21.3042 0.465416 21.1225 0.28374C20.9408 0.102064 20.6944 0 20.4375 0C20.1806 0 19.9342 0.102064 19.7525 0.28374C19.5708 0.465416 19.4688 0.711821 19.4688 0.96875V1.9375H9.78125V0.96875C9.78125 0.711821 9.67919 0.465416 9.49751 0.28374C9.31583 0.102064 9.06943 0 8.8125 0C8.55557 0 8.30917 0.102064 8.12749 0.28374C7.94581 0.465416 7.84375 0.711821 7.84375 0.96875V1.9375H4.9375C4.42364 1.9375 3.93083 2.14163 3.56748 2.50498C3.20413 2.86833 3 3.36114 3 3.875V23.25C3 23.7639 3.20413 24.2567 3.56748 24.62C3.93083 24.9834 4.42364 25.1875 4.9375 25.1875H24.3125C24.8264 25.1875 25.3192 24.9834 25.6825 24.62C26.0459 24.2567 26.25 23.7639 26.25 23.25V3.875C26.25 3.36114 26.0459 2.86833 25.6825 2.50498C25.3192 2.14163 24.8264 1.9375 24.3125 1.9375ZM12.6875 20.3438C12.6875 20.6007 12.5854 20.8471 12.4038 21.0288C12.2221 21.2104 11.9757 21.3125 11.7188 21.3125C11.4618 21.3125 11.2154 21.2104 11.0337 21.0288C10.8521 20.8471 10.75 20.6007 10.75 20.3438V14.1607L10.2148 14.4295C9.98481 14.5445 9.71861 14.5634 9.47471 14.4821C9.23081 14.4008 9.02919 14.226 8.91422 13.996C8.79924 13.7661 8.78032 13.4999 8.86162 13.256C8.94292 13.0121 9.11778 12.8104 9.34773 12.6955L11.2852 11.7267C11.433 11.6528 11.5972 11.6179 11.7622 11.6253C11.9273 11.6327 12.0877 11.6822 12.2282 11.7691C12.3687 11.856 12.4847 11.9774 12.5651 12.1217C12.6455 12.266 12.6876 12.4285 12.6875 12.5938V20.3438ZM19.4688 19.375C19.7257 19.375 19.9721 19.4771 20.1538 19.6587C20.3354 19.8404 20.4375 20.0868 20.4375 20.3438C20.4375 20.6007 20.3354 20.8471 20.1538 21.0288C19.9721 21.2104 19.7257 21.3125 19.4688 21.3125H15.5938C15.4138 21.3125 15.2375 21.2624 15.0844 21.1678C14.9314 21.0732 14.8077 20.9379 14.7273 20.777C14.6468 20.6161 14.6128 20.4359 14.6289 20.2568C14.6451 20.0776 14.7108 19.9064 14.8188 19.7625L18.3038 15.1161C18.3831 15.0106 18.44 14.89 18.4709 14.7617C18.5019 14.6334 18.5064 14.5001 18.484 14.37C18.4616 14.24 18.4129 14.1158 18.3408 14.0053C18.2687 13.8947 18.1748 13.8 18.0648 13.727C17.9548 13.6541 17.8311 13.6044 17.7012 13.5809C17.5713 13.5575 17.438 13.5609 17.3094 13.5908C17.1809 13.6208 17.0598 13.6767 16.9537 13.7551C16.8475 13.8335 16.7585 13.9328 16.6921 14.0469C16.6303 14.1606 16.5465 14.2607 16.4454 14.3415C16.3443 14.4222 16.2281 14.4819 16.1036 14.517C15.9791 14.5521 15.8488 14.5619 15.7204 14.5458C15.5921 14.5298 15.4682 14.4882 15.3562 14.4235C15.2442 14.3587 15.1462 14.2723 15.0682 14.1691C14.9901 14.0659 14.9335 13.9482 14.9017 13.8228C14.8699 13.6974 14.8635 13.5669 14.883 13.439C14.9024 13.3111 14.9473 13.1884 15.0149 13.0781C15.3349 12.5243 15.8287 12.0916 16.4196 11.847C17.0106 11.6023 17.6657 11.5595 18.2835 11.725C18.9013 11.8906 19.4472 12.2553 19.8367 12.7626C20.2261 13.27 20.4373 13.8917 20.4375 14.5312C20.4396 15.163 20.2336 15.778 19.8514 16.2811L17.5312 19.375H19.4688ZM4.9375 7.75V3.875H7.84375V4.84375C7.84375 5.10068 7.94581 5.34708 8.12749 5.52876C8.30917 5.71044 8.55557 5.8125 8.8125 5.8125C9.06943 5.8125 9.31583 5.71044 9.49751 5.52876C9.67919 5.34708 9.78125 5.10068 9.78125 4.84375V3.875H19.4688V4.84375C19.4688 5.10068 19.5708 5.34708 19.7525 5.52876C19.9342 5.71044 20.1806 5.8125 20.4375 5.8125C20.6944 5.8125 20.9408 5.71044 21.1225 5.52876C21.3042 5.34708 21.4062 5.10068 21.4062 4.84375V3.875H24.3125V7.75H4.9375Z" fill="#2FAC85"/>
</svg>
