<svg xmlns="http://www.w3.org/2000/svg" fill="none" viewBox="0 0 22 22"><path fill="#757F80" fill-rule="evenodd" d="M11.4868 2.26326C11.5508 2.32712 11.6016 2.40299 11.6362 2.48651C11.6709 2.57004 11.6887 2.65958 11.6887 2.75001C11.6887 2.84044 11.6709 2.92998 11.6362 3.0135C11.6016 3.09703 11.5508 3.1729 11.4868 3.23676L3.72213 11L11.4868 18.7633C11.6159 18.8924 11.6884 19.0674 11.6884 19.25C11.6884 19.4326 11.6159 19.6077 11.4868 19.7368C11.3577 19.8659 11.1826 19.9384 11 19.9384C10.8174 19.9384 10.6424 19.8659 10.5133 19.7368L2.26326 11.4868C2.19923 11.4229 2.14844 11.347 2.11378 11.2635C2.07912 11.18 2.06128 11.0904 2.06128 11C2.06128 10.9096 2.07912 10.82 2.11378 10.7365C2.14844 10.653 2.19923 10.5771 2.26326 10.5133L10.5133 2.26326C10.5771 2.19923 10.653 2.14844 10.7365 2.11378C10.82 2.07912 10.9096 2.06128 11 2.06128C11.0904 2.06128 11.18 2.07912 11.2635 2.11378C11.347 2.14844 11.4229 2.19923 11.4868 2.26326Z" clip-rule="evenodd"/><path fill="#757F80" fill-rule="evenodd" d="M16.9868 2.26326C17.0508 2.32712 17.1016 2.40299 17.1362 2.48651C17.1709 2.57004 17.1887 2.65958 17.1887 2.75001C17.1887 2.84044 17.1709 2.92998 17.1362 3.0135C17.1016 3.09703 17.0508 3.1729 16.9868 3.23676L9.22213 11L16.9868 18.7633C17.0507 18.8272 17.1014 18.9031 17.136 18.9866C17.1706 19.0701 17.1884 19.1596 17.1884 19.25C17.1884 19.3404 17.1706 19.4299 17.136 19.5134C17.1014 19.597 17.0507 19.6728 16.9868 19.7368C16.9228 19.8007 16.847 19.8514 16.7634 19.886C16.6799 19.9206 16.5904 19.9384 16.5 19.9384C16.4096 19.9384 16.3201 19.9206 16.2366 19.886C16.1531 19.8514 16.0772 19.8007 16.0133 19.7368L7.76326 11.4868C7.69923 11.4229 7.64844 11.347 7.61378 11.2635C7.57912 11.18 7.56128 11.0904 7.56128 11C7.56128 10.9096 7.57912 10.82 7.61378 10.7365C7.64844 10.653 7.69923 10.5771 7.76326 10.5133L16.0133 2.26326C16.0771 2.19923 16.153 2.14844 16.2365 2.11378C16.32 2.07912 16.4096 2.06128 16.5 2.06128C16.5904 2.06128 16.68 2.07912 16.7635 2.11378C16.847 2.14844 16.9229 2.19923 16.9868 2.26326Z" clip-rule="evenodd"/></svg>