<svg xmlns="http://www.w3.org/2000/svg" fill="none" viewBox="0 0 22 22"><path fill="#757F80" fill-rule="evenodd" d="M10.5132 19.7367C10.4492 19.6729 10.3984 19.597 10.3638 19.5135C10.3291 19.43 10.3113 19.3404 10.3113 19.25C10.3113 19.1596 10.3291 19.07 10.3638 18.9865C10.3984 18.903 10.4492 18.8271 10.5132 18.7632L18.2779 11L10.5132 3.23674C10.3841 3.10765 10.3116 2.93256 10.3116 2.74999C10.3116 2.56742 10.3841 2.39234 10.5132 2.26324C10.6423 2.13415 10.8174 2.06162 11 2.06162C11.1826 2.06162 11.3576 2.13415 11.4867 2.26324L19.7367 10.5132C19.8008 10.5771 19.8516 10.653 19.8862 10.7365C19.9209 10.82 19.9387 10.9096 19.9387 11C19.9387 11.0904 19.9209 11.18 19.8862 11.2635C19.8516 11.347 19.8008 11.4229 19.7367 11.4867L11.4867 19.7367C11.4229 19.8008 11.347 19.8516 11.2635 19.8862C11.18 19.9209 11.0904 19.9387 11 19.9387C10.9096 19.9387 10.82 19.9209 10.7365 19.8862C10.653 19.8516 10.5771 19.8008 10.5132 19.7367Z" clip-rule="evenodd"/><path fill="#757F80" fill-rule="evenodd" d="M5.01324 19.7367C4.94922 19.6729 4.89842 19.597 4.86376 19.5135C4.8291 19.43 4.81126 19.3404 4.81126 19.25C4.81126 19.1596 4.8291 19.07 4.86376 18.9865C4.89842 18.903 4.94922 18.8271 5.01324 18.7632L12.7779 11L5.01324 3.23674C4.94932 3.17282 4.89862 3.09694 4.86402 3.01342C4.82943 2.9299 4.81162 2.84039 4.81162 2.74999C4.81162 2.65959 4.82943 2.57008 4.86402 2.48656C4.89862 2.40305 4.94932 2.32716 5.01324 2.26324C5.07716 2.19932 5.15305 2.14862 5.23656 2.11402C5.32008 2.07943 5.40959 2.06162 5.49999 2.06162C5.59039 2.06162 5.6799 2.07943 5.76342 2.11402C5.84694 2.14862 5.92282 2.19932 5.98674 2.26324L14.2367 10.5132C14.3008 10.5771 14.3516 10.653 14.3862 10.7365C14.4209 10.82 14.4387 10.9096 14.4387 11C14.4387 11.0904 14.4209 11.18 14.3862 11.2635C14.3516 11.347 14.3008 11.4229 14.2367 11.4867L5.98674 19.7367C5.92288 19.8008 5.84701 19.8516 5.76349 19.8862C5.67996 19.9209 5.59042 19.9387 5.49999 19.9387C5.40956 19.9387 5.32002 19.9209 5.2365 19.8862C5.15297 19.8516 5.0771 19.8008 5.01324 19.7367Z" clip-rule="evenodd"/></svg>