<svg viewBox="0 0 50 50" fill="none" xmlns="http://www.w3.org/2000/svg">
<path d="M25.9989 15.9385L35.7166 22.0896L33.9041 23.4083L24.9218 17.7229L16.0271 23.4063L14.2271 22.0833L23.8385 15.9438C24.1605 15.7366 24.5351 15.6261 24.918 15.6251C25.3008 15.6242 25.6759 15.733 25.9989 15.9385Z" fill="#1B2122"/>
<path fill-rule="evenodd" clip-rule="evenodd" d="M7.11979 21.7844C5.91354 20.899 5.97187 19.025 7.2302 18.2219L23.8385 7.6094C24.1605 7.40227 24.5351 7.2917 24.918 7.29078C25.3008 7.28985 25.676 7.39862 25.999 7.6042L42.7625 18.2157C44.0302 19.0177 44.0885 20.9032 42.8719 21.7886L26.1104 33.9865C25.3958 34.5073 24.4427 34.5042 23.7292 33.9813L7.11979 21.7844ZM8.35208 19.9761L24.9219 9.38961L41.6479 19.9771L41.6531 19.9802L41.6542 19.9834C41.6622 19.9999 41.6665 20.0181 41.6667 20.0365C41.6675 20.0561 41.6639 20.0757 41.6562 20.0938C41.6562 20.0957 41.6554 20.0975 41.6542 20.099L41.6469 20.1052L24.9229 32.2729L8.35312 20.1052C8.35044 20.1035 8.34799 20.1014 8.34583 20.099L8.3427 20.0927C8.33549 20.0749 8.33229 20.0557 8.33333 20.0365C8.33353 20.0181 8.3378 19.9999 8.34583 19.9834L8.34687 19.9802L8.35208 19.9761Z" fill="#1B2122"/>
<path d="M8.5802 25.6917L10.3802 27.0146L8.35208 28.3094C8.35022 28.3106 8.34848 28.312 8.34687 28.3136L8.34583 28.3167C8.33795 28.333 8.33368 28.3507 8.33333 28.3688C8.33214 28.3899 8.33607 28.411 8.34479 28.4302C8.3451 28.431 8.34544 28.4317 8.34583 28.4323L8.35312 28.4386L24.9229 40.6063L41.6469 28.4386L41.6542 28.4323L41.6552 28.4302L41.6573 28.4271C41.6646 28.409 41.6678 28.3894 41.6667 28.3698C41.6665 28.3514 41.6622 28.3333 41.6542 28.3167L41.6531 28.3136L41.6479 28.3105L39.5854 27.0042L41.3979 25.6865L42.7625 26.55C44.0302 27.3521 44.0885 29.2375 42.8719 30.123L26.1104 42.3198C25.3958 42.8407 24.4427 42.8375 23.7292 42.3146L7.11979 30.1167C5.91354 29.2313 5.97187 27.3584 7.2302 26.5542L8.5802 25.6917Z" fill="#1B2122"/>
</svg>
