<svg viewBox="0 0 28 28" fill="none" xmlns="http://www.w3.org/2000/svg">
<path d="M25.1755 8.6059V19.4161C25.1755 20.2901 24.8409 21.1311 24.2402 21.7669C23.6395 22.4028 22.818 22.7855 21.9439 22.8368L21.7425 22.8425H5.72171C4.84605 22.8426 4.00347 22.5087 3.36636 21.9091C2.72926 21.3095 2.34579 20.4896 2.29442 19.6172L2.2887 19.4161V8.6059L13.097 15.7979L13.2297 15.8733C13.3862 15.9495 13.558 15.9892 13.7321 15.9892C13.9062 15.9892 14.078 15.9495 14.2344 15.8733L14.3672 15.7979L25.1755 8.6059Z" fill="#566164"/>
<path d="M21.7424 4.56854C22.9783 4.56854 24.062 5.21956 24.6662 6.19836L13.7321 13.4737L2.79791 6.19836C3.08483 5.73325 3.47904 5.34336 3.94764 5.06124C4.41624 4.77911 4.94564 4.61292 5.49169 4.57654L5.7217 4.56854H21.7424Z" fill="#566164"/>
</svg>
