<svg xmlns="http://www.w3.org/2000/svg" fill="none" viewBox="0 0 21 20"><path fill="#fff" d="M18.1017 10C18.1017 10.2486 18.003 10.4871 17.8272 10.6629C17.6513 10.8387 17.4129 10.9375 17.1642 10.9375H11.2267V16.875C11.2267 17.1236 11.128 17.3621 10.9522 17.5379C10.7763 17.7137 10.5379 17.8125 10.2892 17.8125C10.0406 17.8125 9.80215 17.7137 9.62633 17.5379C9.45052 17.3621 9.35175 17.1236 9.35175 16.875V10.9375H3.41425C3.16561 10.9375 2.92715 10.8387 2.75133 10.6629C2.57552 10.4871 2.47675 10.2486 2.47675 10C2.47675 9.75136 2.57552 9.5129 2.75133 9.33709C2.92715 9.16127 3.16561 9.0625 3.41425 9.0625H9.35175V3.125C9.35175 2.87636 9.45052 2.6379 9.62633 2.46209C9.80215 2.28627 10.0406 2.1875 10.2892 2.1875C10.5379 2.1875 10.7763 2.28627 10.9522 2.46209C11.128 2.6379 11.2267 2.87636 11.2267 3.125V9.0625H17.1642C17.4129 9.0625 17.6513 9.16127 17.8272 9.33709C18.003 9.5129 18.1017 9.75136 18.1017 10Z"/></svg>